<svg role="img" viewBox="0 0 24 24" xmlns="http://www.w3.org/2000/svg"><title>Software Heritage</title><path d="M 6.5370198,9.1126043 7.0604355,8.5920281 8.9497431,9.2149366 8.3194519,7.3454359 8.8440421,6.8260225 9.9989234,10.254151 Z M 5.2110595,8.696686 7.4605334,4.5588217 7.9506729,5.0441244 5.7008074,9.1816011 Z M 4.2119892,4.5250986 4.8414974,6.3945993 4.3169073,6.9140127 3.1624174,3.4851089 6.6239295,4.6282061 6.1001223,5.1487823 Z m 7.5854168,3.3808386 0.890238,-1.9939273 h 0.741473 L 11.797798,9.3754121 10.165305,6.2597068 10.907169,6.200013 Z M 9.5279667,5.1526585 14.225789,3.801796 V 4.4878869 L 9.5279667,5.8383617 Z M 11.797406,1.4694748 10.907561,3.1986563 H 10.165696 L 11.797798,0 l 1.631319,3.2478843 -0.742256,-0.00698 z m 5.197358,7.7943021 -3.461904,1.1434851 1.152924,-3.4281288 0.525373,0.5186381 -0.629116,1.8702759 1.888133,-0.6236837 z M 18.794421,8.3792236 14.615708,6.1511727 15.105456,5.6666452 19.284561,7.8939209 Z M 18.689112,6.5465471 19.319011,4.6774341 17.43127,5.3003425 16.90668,4.7809291 20.368583,3.6382196 19.214485,7.0655729 Z m -1.331441,7.2570579 -3.217617,-1.615608 3.28691,-1.616383 0.01292,0.734931 -1.821581,0.881452 1.739369,0.881065 z m 1.327526,-4.0153756 1.364717,4.6514636 h -0.69332 L 17.99266,9.7882294 Z M 20.881037,10.572001 24,12.187997 l -3.336237,1.615608 -0.03719,-0.734931 1.907707,-0.880677 -1.653242,-0.881452 z m -4.040518,4.475871 -0.524199,0.520188 -1.888525,-0.623296 0.629509,1.869501 -0.524591,0.519801 -1.154098,-3.428129 z m 1.32596,0.41553 -2.249474,4.137864 -0.490531,-0.48569 2.250257,-4.137089 z m 0.998679,4.171975 -0.629508,-1.8695 0.524981,-0.519026 1.153707,3.427741 -3.461512,-1.143097 0.524199,-0.519802 z m -6.69518,-1.848956 -0.890237,-1.69197 -0.890238,1.833839 H 9.9480303 l 1.6317107,-3.302926 1.632493,3.195942 z m 1.755811,1.221397 -4.6978223,1.350862 v -0.686091 l 4.6978223,-1.350862 z m -2.646048,3.522708 0.890237,-1.888882 h 0.741864 L 11.579741,24 9.9476389,20.831191 10.689895,20.799022 Z M 8.6909714,17.181342 8.1659897,16.661929 8.7954979,14.792429 6.9073648,15.415725 6.3827747,14.896311 9.8450697,13.753214 Z M 4.5827257,15.78164 8.7614387,18.008915 8.2716907,18.49383 4.0925862,16.266555 Z m 0.104918,1.831901 -0.6295081,1.8695 1.8885245,-0.623295 0.5241987,0.519801 -3.4622951,1.142709 1.1544899,-3.428128 z M 6.0046,10.356483 9.2688035,11.972479 6.0046,13.588475 V 12.853544 L 7.7846831,11.972479 6.0046,11.091027 Z M 4.0201615,9.7882294 5.3844874,14.05207 H 4.6919501 L 3.3276242,9.7882294 Z M 0,11.972479 3.2642036,13.588475 V 12.853544 L 1.4841204,11.972479 3.2642036,11.091027 v -0.734544 z"/></svg>